<svg width="100" height="100" viewBox="0 0 100 100" fill="none" xmlns="http://www.w3.org/2000/svg">
<rect width="100" height="100" rx="16" fill="#080808"/>
<path d="M24.0682 65.4325C22.6065 65.4325 21.304 65.179 20.1605 64.6719C19.017 64.1548 18.1122 63.3942 17.446 62.3899C16.7898 61.3757 16.4616 60.1129 16.4616 58.6016C16.4616 57.3288 16.6953 56.2599 17.1626 55.3949C17.63 54.5298 18.2663 53.8338 19.0717 53.3068C19.8771 52.7798 20.7919 52.3821 21.8161 52.1136C22.8501 51.8452 23.9339 51.6562 25.0675 51.5469C26.3999 51.4077 27.4737 51.2784 28.2891 51.1591C29.1044 51.0298 29.696 50.8409 30.0639 50.5923C30.4318 50.3437 30.6158 49.9759 30.6158 49.4886V49.3991C30.6158 48.4545 30.3175 47.7237 29.7209 47.2067C29.1342 46.6896 28.299 46.4311 27.2152 46.4311C26.0717 46.4311 25.1619 46.6847 24.4858 47.1918C23.8097 47.6889 23.3622 48.3153 23.1435 49.071L17.267 48.5938C17.5653 47.2017 18.152 45.9986 19.027 44.9844C19.902 43.9602 21.0305 43.1747 22.4126 42.6278C23.8047 42.071 25.4155 41.7926 27.245 41.7926C28.5178 41.7926 29.7358 41.9418 30.8991 42.2401C32.0724 42.5384 33.1115 43.0007 34.0163 43.6271C34.9311 44.2536 35.652 45.0589 36.179 46.0433C36.706 47.0178 36.9695 48.1861 36.9695 49.5483V65H30.9439V61.8232H30.7649C30.397 62.5391 29.9048 63.1705 29.2884 63.7173C28.6719 64.2543 27.9311 64.6768 27.0661 64.9851C26.201 65.2834 25.2017 65.4325 24.0682 65.4325ZM25.8878 61.0476C26.8224 61.0476 27.6477 60.8636 28.3636 60.4957C29.0795 60.1179 29.6413 59.6108 30.049 58.9744C30.4567 58.3381 30.6605 57.6172 30.6605 56.8118V54.3807C30.4616 54.5099 30.1882 54.6293 29.8402 54.7386C29.5021 54.8381 29.1193 54.9325 28.6918 55.022C28.2642 55.1016 27.8366 55.1761 27.4091 55.2457C26.9815 55.3054 26.5938 55.3601 26.2457 55.4098C25.5 55.5192 24.8487 55.6932 24.2919 55.9318C23.7351 56.1705 23.3026 56.4936 22.9943 56.9013C22.6861 57.299 22.532 57.7962 22.532 58.3928C22.532 59.2578 22.8452 59.919 23.4716 60.3764C24.108 60.8239 24.9134 61.0476 25.8878 61.0476ZM54.2184 42.0909V46.8636H40.0792V42.0909H54.2184ZM43.3157 65V40.4354C43.3157 38.7749 43.6388 37.3977 44.2852 36.304C44.9414 35.2102 45.8363 34.3899 46.9698 33.843C48.1033 33.2962 49.391 33.0227 50.8327 33.0227C51.8072 33.0227 52.6971 33.0973 53.5025 33.2464C54.3178 33.3956 54.9244 33.5298 55.3221 33.6491L54.1886 38.4219C53.94 38.3423 53.6317 38.2678 53.2638 38.1982C52.9059 38.1286 52.538 38.0938 52.1602 38.0938C51.2255 38.0938 50.5742 38.3125 50.2063 38.75C49.8384 39.1776 49.6545 39.7791 49.6545 40.5547V65H43.3157ZM70.2853 42.0909V46.8636H56.4892V42.0909H70.2853ZM59.6213 36.6023H65.975V57.9602C65.975 58.5469 66.0645 59.0043 66.2434 59.3324C66.4224 59.6506 66.671 59.8743 66.9892 60.0036C67.3173 60.1328 67.6951 60.1974 68.1227 60.1974C68.421 60.1974 68.7193 60.1726 69.0176 60.1229C69.3159 60.0632 69.5446 60.0185 69.7037 59.9886L70.7029 64.7166C70.3848 64.8161 69.9373 64.9304 69.3606 65.0597C68.7839 65.1989 68.0829 65.2834 67.2576 65.3132C65.7264 65.3729 64.3841 65.169 63.2306 64.7017C62.0872 64.2344 61.1973 63.5085 60.5609 62.5241C59.9245 61.5398 59.6113 60.2969 59.6213 58.7955V36.6023ZM78.138 65.3878C77.1536 65.3878 76.3084 65.0398 75.6025 64.3438C74.9064 63.6378 74.5584 62.7926 74.5584 61.8082C74.5584 60.8338 74.9064 59.9986 75.6025 59.3026C76.3084 58.6065 77.1536 58.2585 78.138 58.2585C79.0925 58.2585 79.9277 58.6065 80.6436 59.3026C81.3596 59.9986 81.7175 60.8338 81.7175 61.8082C81.7175 62.4645 81.5485 63.0661 81.2104 63.6129C80.8823 64.1499 80.4498 64.5824 79.9128 64.9105C79.3759 65.2287 78.7843 65.3878 78.138 65.3878Z" fill="white"/>
</svg>
